<svg width="161" height="34" viewBox="0 0 161 34" fill="none" xmlns="http://www.w3.org/2000/svg">
<g clip-path="url(#clip0_27_1519)">
<path d="M7.36157 0.743164V16.1222L16.8231 21.6983V6.31927L7.36157 0.743164Z" fill="white"/>
<path d="M0.875 6.31934V22.2836H14.7584L5.81708 17.0163V6.31934H0.875Z" fill="white"/>
<path d="M29.422 6.31934V17.0163L20.4807 22.2836H34.5104V6.31934H29.422Z" fill="white"/>
<path d="M27.8614 0.743164L18.3999 6.31927V21.6983L27.8614 16.1222V0.743164Z" fill="white"/>
<path d="M45.8157 20.2316C45.8157 21.3858 46.6773 21.7597 47.7828 21.7597C49.8799 21.7597 51.1805 20.638 51.1805 18.0857C51.1805 15.387 49.7824 14.2816 47.4902 14.2816H45.8157V20.2316ZM45.8157 13.7288H47.2138C49.376 13.7288 50.5302 12.4283 50.5302 10.4937C50.5302 8.21776 49.2297 7.031 47.2301 7.031H45.8157V13.7288ZM42.4181 8.39658C42.4181 6.5433 40.4185 7.43743 40.4185 6.78715C40.4185 6.59207 40.516 6.47827 40.8899 6.47827C42.0767 6.47827 43.1821 6.52704 44.125 6.52704C45.5881 6.52704 46.9049 6.47827 48.238 6.47827C51.7983 6.47827 53.9279 7.95765 53.9279 10.3149C53.9279 12.4283 52.5298 13.6313 48.7095 13.9889V14.0377C52.1397 14.1353 54.7245 15.1269 54.7245 17.9881C54.7245 20.4754 53.5865 22.3287 49.0346 22.3287C47.8478 22.3287 46.0596 22.2799 44.1413 22.2799C43.2146 22.2799 42.0929 22.3287 40.9062 22.3287C40.5323 22.3287 40.4347 22.2149 40.4347 22.0198C40.4347 21.3696 42.4343 22.2799 42.4343 20.4104L42.4181 8.39658Z" fill="white"/>
<path d="M61.9752 22.0522C63.4546 22.0522 64.6738 20.9305 64.6738 17.0126C64.6738 13.0947 63.4708 11.973 61.9752 11.973C60.4958 11.973 59.2766 13.0947 59.2766 17.0126C59.2766 20.9305 60.4958 22.0522 61.9752 22.0522ZM61.9752 11.5503C65.5029 11.5503 67.9577 14.0538 67.9577 17.0126C67.9577 19.9713 65.5029 22.4749 61.9752 22.4749C58.4475 22.4749 55.9927 19.9713 55.9927 17.0126C55.9927 14.0538 58.4475 11.5503 61.9752 11.5503Z" fill="white"/>
<path d="M75.3058 22.0522C76.7851 22.0522 78.0044 20.9305 78.0044 17.0126C78.0044 13.0947 76.8014 11.973 75.3058 11.973C73.8101 11.973 72.6071 13.0947 72.6071 17.0126C72.6071 20.9305 73.8101 22.0522 75.3058 22.0522ZM75.3058 11.5503C78.8335 11.5503 81.2883 14.0538 81.2883 17.0126C81.2883 19.9713 78.8335 22.4749 75.3058 22.4749C71.778 22.4749 69.3232 19.9713 69.3232 17.0126C69.3232 14.0538 71.778 11.5503 75.3058 11.5503Z" fill="white"/>
<path d="M86.9294 17.5329V20.4103C86.9294 22.2636 88.5551 21.4345 88.5551 22.036C88.5551 22.1986 88.5063 22.3124 88.2787 22.3124C87.6772 22.3124 86.7018 22.2636 85.4663 22.2636C84.2308 22.2636 83.2554 22.3124 82.6539 22.3124C82.4263 22.3124 82.3775 22.1986 82.3775 22.036C82.3775 21.4345 84.0032 22.2636 84.0032 20.4103V8.46155C84.0032 6.85212 82.1499 7.20977 82.1499 6.72206C82.1499 6.28313 83.0765 6.5595 86.9294 5.32397V17.1102C87.4659 16.7688 88.0511 16.3949 88.6201 15.9234C90.1808 14.7204 91.1562 13.745 91.1562 13.0622C91.1562 11.8755 89.5955 12.412 89.5955 11.9243C89.5955 11.7292 89.6931 11.6641 89.9857 11.6641C90.5222 11.6641 91.4976 11.7129 92.2617 11.7129C93.1721 11.7129 93.8711 11.6641 94.4401 11.6641C94.749 11.6641 94.814 11.7292 94.814 11.8917C94.814 12.3632 93.3671 11.7942 91.8878 13.3549L90.4409 14.8667L94.0337 20.898C94.7815 22.1498 95.7731 21.3695 95.7731 22.0198C95.7731 22.1986 95.6594 22.2961 95.2692 22.2961C94.31 22.2961 93.3834 22.2474 92.4405 22.2474C91.4976 22.2474 90.5547 22.2961 89.6118 22.2961C89.2867 22.2961 89.1891 22.1823 89.1891 22.0198C89.1891 21.5158 90.5872 22.0198 90.5872 21.0281C90.5547 20.7517 90.4734 20.4916 90.3271 20.264L88.2625 16.6387L86.9294 17.5329Z" fill="white"/>
<path d="M104.292 14.3303C104.292 12.8509 103.43 11.9568 102.032 11.9568C100.309 11.9568 99.0082 13.4036 99.0082 16.6875C99.0082 19.2398 100.488 21.0444 102.032 21.0444C102.894 21.0606 103.706 20.703 104.292 20.0689V14.3303ZM107.218 19.3211C107.218 20.9306 109.12 20.5729 109.12 21.0606C109.12 21.4995 108.145 21.2232 104.292 22.4587V20.6054H104.243C103.251 21.8247 101.756 22.5075 100.179 22.4587C98.1791 22.4587 95.9519 20.703 95.9519 17.5329C95.9519 14.2327 98.618 11.5504 101.934 11.5341C101.999 11.5341 102.048 11.5341 102.113 11.5341C102.861 11.5178 103.593 11.6479 104.292 11.908V8.46155C104.292 6.85212 102.438 7.20977 102.438 6.72206C102.438 6.28313 103.365 6.5595 107.218 5.32397V19.3211Z" fill="white"/>
<path d="M117.118 15.8746C117.07 12.8021 116.289 11.973 114.989 11.973C113.509 11.973 112.534 13.4198 112.485 15.8746H117.118ZM112.469 16.4274C112.518 19.256 114.322 20.6541 116.257 20.6541C117.346 20.7192 118.386 20.2802 119.085 19.4511C119.573 18.9147 119.557 18.5407 119.752 18.5407C119.833 18.557 119.898 18.622 119.898 18.7033C119.898 19.4024 118.825 22.4586 115.005 22.4586C111.867 22.4586 109.835 20.2315 109.835 16.9313C109.835 13.8588 112.014 11.5503 115.005 11.5503C117.606 11.5503 119.817 13.2247 119.898 16.4274H112.469Z" fill="white"/>
<path d="M127.539 16.3623C125.263 17.2402 124.288 17.9392 124.288 19.4024C124.288 20.7517 124.759 21.2069 125.54 21.2069C126.287 21.1256 127.003 20.8004 127.539 20.2802V16.3623ZM130.465 20.833C130.465 21.2719 130.677 21.4832 131.051 21.4832C131.408 21.4507 131.733 21.2882 131.977 21.0118C132.124 20.898 132.205 20.6866 132.351 20.6866C132.449 20.6866 132.514 20.7679 132.514 20.8492C132.514 20.8655 132.514 20.8655 132.514 20.8817C132.514 21.2231 131.262 22.4586 129.734 22.4586C128.417 22.4586 127.897 21.9709 127.555 20.833C126.466 21.8246 125.068 22.3936 123.605 22.4586C122.402 22.4586 121.231 21.9547 121.231 20.329C121.231 18.9146 121.979 18.1181 124.922 16.9313L127.539 15.8909V13.2573C127.539 12.4932 127.312 12.0705 126.629 12.0705C125.605 12.038 124.727 12.8021 124.613 13.81C124.337 15.5007 123.946 16.151 122.727 16.151C122.061 16.151 121.54 15.6145 121.54 14.948C121.54 14.9155 121.54 14.8829 121.54 14.8504C121.54 13.176 124.938 11.5503 127.653 11.5503C129.457 11.5503 130.465 12.3469 130.465 14.5253V20.833Z" fill="white"/>
<path d="M137.179 20.4266C137.179 22.2799 139.081 21.4508 139.081 22.0523C139.081 22.2149 139.033 22.3286 138.805 22.3286C138.057 22.3286 136.952 22.2799 135.716 22.2799C134.481 22.2799 133.375 22.3286 132.627 22.3286C132.4 22.3286 132.351 22.2149 132.351 22.0523C132.351 21.4508 134.253 22.2799 134.253 20.4266V8.46155C134.253 6.85212 132.4 7.20977 132.4 6.72206C132.4 6.28313 133.326 6.5595 137.179 5.32397V20.4266Z" fill="white"/>
<path d="M147.21 15.8746C147.161 12.8021 146.381 11.973 145.08 11.973C143.601 11.973 142.625 13.4198 142.577 15.8746H147.21ZM142.56 16.4274C142.609 19.256 144.414 20.6541 146.348 20.6541C147.437 20.7192 148.478 20.2802 149.177 19.4511C149.665 18.9147 149.648 18.5407 149.843 18.5407C149.925 18.557 149.99 18.622 149.99 18.7033C149.99 19.4024 148.917 22.4586 145.096 22.4586C141.959 22.4586 139.927 20.2315 139.927 16.9313C139.927 13.8588 142.105 11.5503 145.096 11.5503C147.698 11.5503 149.908 13.2247 149.99 16.4274H142.56Z" fill="white"/>
<path d="M155.859 14.5742H155.907C156.785 12.4446 157.793 11.5504 159.012 11.5504C159.923 11.4529 160.752 12.1032 160.866 13.0298C160.866 13.0949 160.882 13.1436 160.882 13.2086C160.882 14.1678 160.394 14.8181 159.435 14.8181C158.183 14.8181 158.411 13.5175 157.598 13.5175C156.558 13.5175 155.859 15.2733 155.859 15.9723V20.4267C155.859 22.28 157.484 21.4509 157.484 22.0524C157.484 22.2149 157.435 22.3287 157.208 22.3287C156.606 22.3287 155.631 22.28 154.395 22.28C153.16 22.28 152.185 22.3287 151.583 22.3287C151.355 22.3287 151.307 22.2149 151.307 22.0524C151.307 21.4509 152.932 22.28 152.932 20.4267V14.5905C152.932 12.9811 151.307 13.2412 151.307 12.851C151.307 12.4121 152.006 12.6884 155.859 11.5504V14.5742Z" fill="white"/>
<path d="M40.9712 27.6447C40.9712 27.0269 40.2234 27.3196 40.2234 27.092C40.2234 26.9782 40.2722 26.9619 40.4185 26.9619C40.7436 26.9619 40.9712 26.9782 41.5239 26.9782C42.0767 26.9782 42.3043 26.9619 42.6294 26.9619C42.7757 26.9619 42.8245 26.9782 42.8245 27.092C42.8245 27.3196 42.0767 27.0269 42.0767 27.6447V32.5218C42.0767 33.1395 42.8245 32.8469 42.8245 33.0745C42.8245 33.1883 42.7757 33.2045 42.6294 33.2045C42.3043 33.2045 42.0767 33.1883 41.5239 33.1883C40.9712 33.1883 40.7436 33.2045 40.4185 33.2045C40.2722 33.2045 40.2234 33.1883 40.2234 33.0745C40.2234 32.8469 40.9712 33.1395 40.9712 32.5218V27.6447Z" fill="white"/>
<path d="M46.7424 29.4979H46.0596C46.6936 28.9452 47.2463 28.3274 47.734 27.6609V29.0265H48.9858L48.7582 29.4979H47.734V31.8552C47.734 32.5217 47.9291 32.8306 48.3843 32.8306C48.6282 32.8306 48.8395 32.7168 48.9858 32.5217C49.0996 32.3916 49.0996 32.3103 49.1646 32.3103C49.1971 32.3103 49.2134 32.3429 49.2134 32.3754C49.0508 32.9281 48.5306 33.302 47.9616 33.2532C47.3764 33.3345 46.8399 32.9281 46.7424 32.3429C46.7261 32.2778 46.7261 32.2128 46.7261 32.1478V29.4979H46.7424Z" fill="white"/>
<path d="M52.66 32.4892C52.2373 32.9606 51.6358 33.237 50.9855 33.2532C50.5141 33.3183 50.0752 32.9769 50.0101 32.5054C50.0101 32.4567 49.9939 32.4241 50.0101 32.3754V30.2457C50.0101 29.5467 49.2786 29.7418 49.2786 29.4979C49.2786 29.3516 49.8963 29.4979 51.018 28.9614V32.2616C50.9855 32.5379 51.1806 32.798 51.457 32.8306C51.4895 32.8306 51.5058 32.8306 51.5383 32.8306C51.9772 32.8143 52.3836 32.603 52.66 32.2616V30.2457C52.66 29.5467 51.9284 29.7418 51.9284 29.4979C51.9284 29.3516 52.5462 29.4979 53.6679 28.9614V32.034C53.6679 32.7493 54.3507 32.5704 54.3507 32.733C54.3507 32.8631 53.7817 32.7818 52.6762 33.237L52.66 32.4892Z" fill="white"/>
<path d="M58.1223 31.1074C58.1223 29.6768 57.6671 29.1728 56.9843 29.1728C56.3015 29.1728 55.8463 29.6605 55.8463 31.1074C55.8463 32.538 56.3015 33.0257 56.9843 33.0257C57.6671 33.0257 58.1223 32.538 58.1223 31.1074ZM59.2115 31.1074C59.1952 32.3104 58.1873 33.2696 56.9843 33.2533C55.7813 33.2696 54.7733 32.3104 54.7571 31.1074C54.7733 29.9044 55.7813 28.9452 56.9843 28.9615C58.2035 28.929 59.1952 29.8881 59.2115 31.1074Z" fill="white"/>
<path d="M60.8534 27.0593C61.1948 27.0593 61.4711 27.3357 61.4711 27.6771C61.4711 27.6771 61.4711 27.6771 61.4711 27.6933C61.4711 28.0347 61.1948 28.3111 60.8534 28.3111C60.8534 28.3111 60.8534 28.3111 60.8371 28.3111C60.4957 28.3111 60.2193 28.0347 60.2193 27.6933C60.2193 27.6933 60.2193 27.6933 60.2193 27.6771C60.2356 27.3357 60.4957 27.0593 60.8534 27.0593ZM61.3898 32.5704C61.3898 33.1719 62.0726 32.8793 62.0726 33.1069C62.0726 33.1719 62.0076 33.2044 61.8938 33.2044C61.5036 33.2044 61.1947 33.1882 60.9021 33.1882C60.6095 33.1882 60.2844 33.2044 59.9105 33.2044C59.7967 33.2044 59.7316 33.1882 59.7316 33.1069C59.7316 32.8793 60.4144 33.1556 60.4144 32.5704V30.3107C60.4144 29.6442 59.6829 29.7742 59.6829 29.6117C59.6829 29.4328 60.1218 29.4979 61.4223 28.9776L61.3898 32.5704Z" fill="white"/>
<path d="M66.7057 32.5705C66.7057 33.172 67.3885 32.8794 67.3885 33.107C67.3885 33.172 67.3235 33.2045 67.2097 33.2045C66.8195 33.2045 66.5107 33.1883 66.218 33.1883C65.9092 33.1883 65.6003 33.2045 65.2264 33.2045C65.1126 33.2045 65.0475 33.1883 65.0475 33.107C65.0475 32.8794 65.7303 33.1557 65.7303 32.5705V27.9048C65.7303 27.157 64.9988 27.352 64.9988 27.157C64.9988 26.9619 65.6165 27.0432 66.7383 26.5229L66.7057 32.5705Z" fill="white"/>
<path d="M68.8843 27.0593C69.2257 27.0593 69.502 27.3357 69.502 27.6771C69.502 27.6771 69.502 27.6771 69.502 27.6933C69.502 28.0347 69.2257 28.3111 68.8843 28.3111C68.8843 28.3111 68.8843 28.3111 68.868 28.3111C68.5266 28.3111 68.2502 28.0347 68.2502 27.6933C68.2502 27.6933 68.2502 27.6933 68.2502 27.6771C68.2665 27.3357 68.5266 27.0593 68.8843 27.0593ZM69.4045 32.5704C69.4045 33.1719 70.0873 32.8793 70.0873 33.1069C70.0873 33.1719 70.0222 33.2044 69.9084 33.2044C69.5183 33.2044 69.2094 33.1882 68.9168 33.1882C68.6079 33.1882 68.299 33.2044 67.9251 33.2044C67.8113 33.2044 67.7463 33.1882 67.7463 33.1069C67.7463 32.8793 68.4291 33.1556 68.4291 32.5704V30.3107C68.4291 29.6442 67.6975 29.7742 67.6975 29.6117C67.6975 29.4328 68.1364 29.4979 69.437 28.9776V32.5704H69.4045Z" fill="white"/>
<path d="M71.9568 32.1966C71.908 32.6193 72.2331 32.9932 72.6396 33.0419C72.6721 33.0419 72.7046 33.0419 72.7371 33.0419C73.3386 33.0419 73.9076 32.5868 73.9076 31.3187C73.9076 29.8556 73.3549 29.3354 72.7534 29.3354C72.4445 29.3516 72.1519 29.4817 71.9405 29.693L71.9568 32.1966ZM71.1439 33.2045C71.1277 33.237 71.0789 33.2695 71.0301 33.2533C70.9814 33.2533 70.9488 33.2208 70.9488 33.1557V27.9048C70.9488 27.157 70.2173 27.352 70.2173 27.157C70.2173 26.9619 70.835 27.0432 71.9568 26.5229V29.4492C72.2982 29.1403 72.7208 28.9777 73.176 28.9777C74.2002 28.994 75.0293 29.8393 75.0293 30.8635C75.0293 30.8798 75.0293 30.9123 75.0293 30.9286C75.0618 32.1803 74.0702 33.2208 72.8184 33.2533C72.8021 33.2533 72.7859 33.2533 72.7696 33.2533C72.2819 33.2533 71.8105 33.107 71.4203 32.8306L71.1439 33.2045Z" fill="white"/>
<path d="M76.2486 30.2457C76.2486 29.5466 75.5171 29.7417 75.5171 29.4979C75.5171 29.3515 75.9885 29.4979 77.2241 28.9451V30.1644H77.2403C77.4517 29.5304 77.9068 28.9451 78.5246 28.9451C78.8823 28.9126 79.2074 29.1727 79.2399 29.5466C79.2399 29.5629 79.2399 29.5791 79.2399 29.6117C79.2399 29.9043 79.0123 30.1319 78.7197 30.1156H78.7034C78.2808 30.1156 78.297 29.6767 77.9556 29.6767C77.6793 29.6767 77.2566 30.0994 77.2566 31.2536V32.5541C77.2566 33.1556 77.9394 32.863 77.9394 33.0906C77.9394 33.1556 77.8743 33.1882 77.7605 33.1882C77.3704 33.1882 77.0615 33.1719 76.7689 33.1719C76.46 33.1719 76.1511 33.1882 75.7772 33.1882C75.6634 33.1882 75.5984 33.1719 75.5984 33.0906C75.5984 32.863 76.2812 33.1394 76.2812 32.5541L76.2486 30.2457Z" fill="white"/>
<path d="M82.0199 30.8636C81.1583 31.1725 80.508 31.4976 80.508 32.1479C80.508 32.4568 80.6218 32.8795 81.012 32.8795C81.4022 32.8307 81.7598 32.6356 82.0199 32.343V30.8636ZM82.0199 29.498C82.0199 29.2867 81.9061 29.1729 81.6785 29.1729C81.2071 29.1729 80.8332 29.5306 80.8007 30.002C80.7031 30.5385 80.5405 30.7173 80.1016 30.7173C79.8578 30.7336 79.6627 30.5547 79.6464 30.3109C79.6464 30.2946 79.6464 30.2784 79.6464 30.2621C79.6464 29.6444 80.7681 28.9453 81.9061 28.9453C82.6864 28.9453 83.0278 29.3355 83.0278 30.0183V32.6519C83.0278 32.7657 83.0766 32.8795 83.2067 32.8795C83.5318 32.8795 83.6131 32.5543 83.7269 32.5543C83.7757 32.5543 83.8244 32.5706 83.8244 32.6194C83.6456 32.9933 83.2717 33.2371 82.849 33.2371C82.28 33.2371 82.15 32.9608 82.0687 32.5869C81.6298 32.9608 81.077 33.1884 80.4918 33.2371C79.9228 33.2371 79.5164 32.9445 79.5164 32.4243C79.5164 31.6114 80.4267 31.1725 82.0199 30.6685V29.498Z" fill="white"/>
<path d="M85.1248 27.0593C85.4662 27.0593 85.7426 27.3357 85.7426 27.6771C85.7426 27.6771 85.7426 27.6771 85.7426 27.6933C85.7426 28.0347 85.4662 28.3111 85.1248 28.3111C85.1248 28.3111 85.1248 28.3111 85.1086 28.3111C84.7672 28.3111 84.4908 28.0347 84.4908 27.6933C84.4908 27.6933 84.4908 27.6933 84.4908 27.6771C84.5071 27.3357 84.7672 27.0593 85.1248 27.0593ZM85.6613 32.5704C85.6613 33.1719 86.3441 32.8793 86.3441 33.1069C86.3441 33.1719 86.2791 33.2044 86.1653 33.2044C85.7751 33.2044 85.4662 33.1882 85.1736 33.1882C84.881 33.1882 84.5558 33.2044 84.1819 33.2044C84.0681 33.2044 84.0031 33.1882 84.0031 33.1069C84.0031 32.8793 84.6859 33.1556 84.6859 32.5704V30.3107C84.6859 29.6442 83.9543 29.7742 83.9543 29.6117C83.9543 29.4328 84.3933 29.4979 85.6938 28.9776L85.6613 32.5704Z" fill="white"/>
<path d="M91.9041 30.8636C91.0425 31.1725 90.3922 31.4976 90.3922 32.1479C90.3922 32.4568 90.506 32.8795 90.8962 32.8795C91.2863 32.8307 91.644 32.6356 91.9041 32.343V30.8636ZM91.9041 29.498C91.9041 29.2867 91.7903 29.1729 91.5627 29.1729C91.0912 29.1729 90.7173 29.5306 90.6848 30.002C90.5873 30.5385 90.4247 30.7173 89.9858 30.7173C89.7419 30.7336 89.5468 30.5547 89.5306 30.3109C89.5306 30.2946 89.5306 30.2784 89.5306 30.2621C89.5306 29.6444 90.6523 28.9453 91.7903 28.9453C92.5706 28.9453 92.912 29.3355 92.912 30.0183V32.6519C92.912 32.7657 92.9608 32.8795 93.0908 32.8795C93.416 32.8795 93.4973 32.5543 93.5948 32.5543C93.6436 32.5543 93.6923 32.5706 93.6923 32.6194C93.5135 32.9933 93.1396 33.2371 92.7169 33.2371C92.1479 33.2371 92.0179 32.9608 91.9366 32.5869C91.4977 32.9608 90.9449 33.1884 90.3597 33.2371C89.7907 33.2371 89.3843 32.9445 89.3843 32.4243C89.3843 31.6114 90.2947 31.1725 91.8878 30.6685L91.9041 29.498Z" fill="white"/>
<path d="M99.691 30.0019C99.7072 29.563 99.3658 29.2053 98.9431 29.1891C98.9269 29.1891 98.8944 29.1891 98.8781 29.1891C98.1303 29.1891 97.6426 29.8556 97.6426 31.0261C97.6426 32.1966 98.2116 32.7818 98.8456 32.7818C99.2358 32.7656 99.5772 32.538 99.7072 32.1641L99.691 30.0019ZM100.699 32.1478C100.699 32.6355 101.284 32.5705 101.284 32.7493C101.284 32.9119 100.975 32.7981 99.7072 33.2533V32.538H99.691C99.3658 32.9769 98.8619 33.237 98.3254 33.2533C97.3662 33.237 96.6022 32.4567 96.6184 31.4975C96.6184 31.4488 96.6184 31.4 96.6347 31.3512C96.5859 30.0832 97.5613 29.0265 98.8131 28.9615C98.8619 28.9615 98.9106 28.9615 98.9757 28.9615C99.2195 28.9777 99.4634 28.994 99.7072 29.0265V27.9048C99.7072 27.157 98.9757 27.352 98.9757 27.157C98.9757 26.9619 99.5934 27.0432 100.715 26.5229L100.699 32.1478Z" fill="white"/>
<path d="M105.072 31.1074C105.072 29.6768 104.617 29.1728 103.934 29.1728C103.251 29.1728 102.796 29.6605 102.796 31.1074C102.796 32.538 103.251 33.0257 103.934 33.0257C104.601 33.0257 105.072 32.538 105.072 31.1074ZM106.161 31.1074C106.145 32.3104 105.137 33.2696 103.934 33.2533C102.731 33.2696 101.723 32.3104 101.707 31.1074C101.723 29.9044 102.731 28.9452 103.934 28.9615C105.137 28.929 106.129 29.8881 106.161 31.1074Z" fill="white"/>
<path d="M107.332 30.3595C107.332 29.6116 106.6 29.8067 106.6 29.6117C106.6 29.4166 107.218 29.4979 108.34 28.9776V29.7092C108.795 29.2865 109.38 29.0264 109.998 28.9776C110.453 28.9126 110.892 29.2215 110.957 29.6767C110.957 29.7092 110.973 29.7417 110.973 29.7905C111.412 29.3353 112.014 29.0427 112.648 28.9939C113.428 28.9939 113.721 29.3841 113.721 30.1806V32.6029C113.721 33.2044 114.403 32.9118 114.403 33.1394C114.403 33.2044 114.338 33.2369 114.225 33.2369C113.834 33.2369 113.526 33.2207 113.233 33.2207C112.94 33.2207 112.615 33.2369 112.241 33.2369C112.127 33.2369 112.062 33.2207 112.062 33.1394C112.062 32.9118 112.745 33.1882 112.745 32.6029V30.0018C112.761 29.6929 112.518 29.4166 112.192 29.4166C112.176 29.4166 112.176 29.4166 112.16 29.4166C111.721 29.4816 111.331 29.7092 111.054 30.0506V32.6029C111.054 33.2044 111.737 32.9118 111.737 33.1394C111.737 33.2044 111.672 33.2369 111.558 33.2369C111.168 33.2369 110.859 33.2207 110.567 33.2207C110.274 33.2207 109.949 33.2369 109.575 33.2369C109.461 33.2369 109.396 33.2207 109.396 33.1394C109.396 32.9118 110.079 33.1882 110.079 32.6029V30.0018C110.112 29.7092 109.884 29.4328 109.591 29.4166C109.575 29.4166 109.559 29.4166 109.543 29.4166C109.12 29.4816 108.713 29.6767 108.405 29.9856V32.6029C108.405 33.2044 109.087 32.9118 109.087 33.1394C109.087 33.2044 109.022 33.2369 108.909 33.2369C108.518 33.2369 108.21 33.2207 107.917 33.2207C107.608 33.2207 107.299 33.2369 106.925 33.2369C106.811 33.2369 106.746 33.2207 106.746 33.1394C106.746 32.9118 107.429 33.1882 107.429 32.6029L107.332 30.3595Z" fill="white"/>
<path d="M115.915 27.0593C116.257 27.0593 116.533 27.3357 116.533 27.6771C116.533 27.6771 116.533 27.6771 116.533 27.6933C116.533 28.0347 116.257 28.3111 115.915 28.3111C115.915 28.3111 115.915 28.3111 115.899 28.3111C115.558 28.3111 115.281 28.0347 115.281 27.6933C115.281 27.6933 115.281 27.6933 115.281 27.6771C115.298 27.3357 115.558 27.0593 115.915 27.0593ZM116.452 32.5704C116.452 33.1719 117.135 32.8793 117.135 33.1069C117.135 33.1719 117.07 33.2044 116.956 33.2044C116.566 33.2044 116.257 33.1882 115.964 33.1882C115.672 33.1882 115.346 33.2044 114.972 33.2044C114.859 33.2044 114.794 33.1882 114.794 33.1069C114.794 32.8793 115.476 33.1556 115.476 32.5704V30.3107C115.476 29.6442 114.745 29.7742 114.745 29.6117C114.745 29.4328 115.184 29.4979 116.484 28.9776L116.452 32.5704Z" fill="white"/>
<path d="M120.077 32.5706C121.199 32.5706 121.296 31.6927 121.426 31.6927C121.475 31.6927 121.524 31.709 121.524 31.774C121.378 32.6519 120.597 33.2859 119.703 33.2371C118.614 33.2859 117.687 32.4243 117.655 31.335C117.655 31.3025 117.655 31.27 117.655 31.2375C117.574 30.0508 118.468 29.0428 119.654 28.9615C119.687 28.9615 119.719 28.9615 119.736 28.9615C120.565 28.864 121.329 29.4655 121.426 30.2946C121.426 30.6848 121.248 30.8961 120.906 30.8961C120.63 30.9124 120.386 30.6848 120.37 30.4084C120.37 30.3921 120.37 30.3596 120.37 30.3434C120.37 30.1808 120.386 30.0508 120.386 29.8069C120.418 29.498 120.207 29.2217 119.898 29.1891C119.849 29.1891 119.801 29.1891 119.752 29.1891C118.907 29.1891 118.581 29.8232 118.581 30.7661C118.549 31.6439 119.053 32.5706 120.077 32.5706Z" fill="white"/>
<path d="M123.182 27.0593C123.524 27.0593 123.8 27.3357 123.8 27.6771C123.8 27.6771 123.8 27.6771 123.8 27.6933C123.8 28.0347 123.524 28.3111 123.182 28.3111C123.182 28.3111 123.182 28.3111 123.166 28.3111C122.825 28.3111 122.548 28.0347 122.548 27.6933C122.548 27.6933 122.548 27.6933 122.548 27.6771C122.564 27.3357 122.841 27.0593 123.182 27.0593ZM123.719 32.5704C123.719 33.1719 124.401 32.8793 124.401 33.1069C124.401 33.1719 124.336 33.2044 124.223 33.2044C123.832 33.2044 123.524 33.1882 123.231 33.1882C122.938 33.1882 122.613 33.2044 122.239 33.2044C122.126 33.2044 122.06 33.1882 122.06 33.1069C122.06 32.8793 122.743 33.1556 122.743 32.5704V30.3107C122.743 29.6442 122.012 29.7742 122.012 29.6117C122.012 29.4328 122.451 29.4979 123.751 28.9776L123.719 32.5704Z" fill="white"/>
<path d="M126.417 32.5705C126.417 33.172 127.1 32.8794 127.1 33.107C127.1 33.172 127.035 33.2045 126.921 33.2045C126.531 33.2045 126.222 33.1883 125.929 33.1883C125.637 33.1883 125.312 33.2045 124.938 33.2045C124.824 33.2045 124.759 33.1883 124.759 33.107C124.759 32.8794 125.442 33.1557 125.442 32.5705V27.9048C125.442 27.157 124.71 27.352 124.71 27.157C124.71 26.9619 125.328 27.0432 126.45 26.5229L126.417 32.5705Z" fill="white"/>
<path d="M128.596 27.0593C128.937 27.0593 129.214 27.3357 129.214 27.6771C129.214 27.6771 129.214 27.6771 129.214 27.6933C129.214 28.0347 128.937 28.3111 128.596 28.3111C128.596 28.3111 128.596 28.3111 128.58 28.3111C128.238 28.3111 127.962 28.0347 127.962 27.6933C127.962 27.6933 127.962 27.6933 127.962 27.6771C127.978 27.3357 128.238 27.0593 128.596 27.0593ZM129.132 32.5704C129.132 33.1719 129.815 32.8793 129.815 33.1069C129.815 33.1719 129.75 33.2044 129.636 33.2044C129.246 33.2044 128.937 33.1882 128.645 33.1882C128.352 33.1882 128.027 33.2044 127.653 33.2044C127.539 33.2044 127.474 33.1882 127.474 33.1069C127.474 32.8793 128.157 33.1556 128.157 32.5704V30.3107C128.157 29.6442 127.425 29.7742 127.425 29.6117C127.425 29.4328 127.864 29.4979 129.165 28.9776L129.132 32.5704Z" fill="white"/>
<path d="M133.652 31.1074C133.652 29.6768 133.196 29.1728 132.514 29.1728C131.831 29.1728 131.376 29.6605 131.376 31.1074C131.376 32.538 131.831 33.0257 132.514 33.0257C133.196 33.0257 133.652 32.538 133.652 31.1074ZM134.741 31.1074C134.725 32.3104 133.717 33.2696 132.514 33.2533C131.311 33.2696 130.303 32.3104 130.286 31.1074C130.303 29.9044 131.311 28.9452 132.514 28.9615C133.717 28.929 134.725 29.8881 134.741 31.1074Z" fill="white"/>
</g>
<defs>
<clipPath id="clip0_27_1519">
<rect width="160" height="32.5137" fill="white" transform="translate(0.875 0.743164)"/>
</clipPath>
</defs>
</svg>
